<svg width="34" height="24" viewBox="0 0 34 24" fill="none" xmlns="http://www.w3.org/2000/svg">
<path d="M33.6701 5.2802C33.6701 5.2802 33.3401 2.9802 32.3401 1.9502C31.0701 0.600195 29.6401 0.600195 29.0001 0.530195C24.3301 0.200195 17.3201 0.200195 17.3201 0.200195H17.3001C17.3001 0.200195 10.3001 0.200195 5.63012 0.530195C4.98012 0.610195 3.55012 0.610195 2.28012 1.9502C1.28012 2.9702 0.960115 5.2802 0.960115 5.2802C0.960115 5.2802 0.620117 8.0002 0.620117 10.7202V13.2702C0.620117 15.9902 0.960115 18.7002 0.960115 18.7002C0.960115 18.7002 1.28012 21.0202 2.28012 22.0402C3.55012 23.3802 5.22012 23.3402 5.96012 23.4702C8.63012 23.7302 17.3101 23.8102 17.3101 23.8102C17.3101 23.8102 24.3401 23.8102 29.0101 23.4702C29.6601 23.3902 31.0801 23.3902 32.3501 22.0502C33.3501 21.0302 33.6801 18.7102 33.6801 18.7102C33.6801 18.7102 34.0001 16.0002 34.0001 13.2702V10.7202C34.0001 8.0002 33.6701 5.2802 33.6701 5.2802V5.2802ZM7.95012 19.3002H5.72012V6.3002H3.37012V4.1802H10.4101V6.3002H7.96012V19.3002H7.95012ZM16.0001 19.3002H13.8801V18.0602C13.0801 19.0002 12.3801 19.4602 11.6501 19.4602C10.9901 19.4602 10.5501 19.1602 10.3101 18.5902C10.1901 18.2402 10.0901 17.7102 10.0901 16.9202V8.0002H12.2101V17.1702C12.2601 17.4702 12.3901 17.5902 12.6601 17.5902C13.0601 17.5902 13.4401 17.2202 13.8901 16.5902V8.0002H16.0001V19.3002ZM23.7001 15.9202C23.7001 16.9602 23.6301 17.7002 23.5001 18.1802C23.2201 19.0202 22.6301 19.4502 21.8301 19.4502C21.1101 19.4502 20.3701 19.0102 19.6901 18.1702V19.3102H17.6701V4.1802H19.6701V9.1002C20.3301 8.3002 21.0701 7.8302 21.8201 7.8302C22.6201 7.8302 23.1601 8.3002 23.4201 9.1302C23.5701 9.6002 23.7001 10.3302 23.7001 11.4002V15.9202V15.9202ZM28.1601 17.5902C28.6601 17.5902 28.9601 17.3102 29.0601 16.7602C29.0801 16.6602 29.0801 16.1602 29.0801 15.3402H31.2001V15.6602C31.2001 16.3202 31.1501 16.7902 31.1301 16.9902C31.0601 17.4502 30.9001 17.8602 30.6601 18.2202C30.1001 19.0402 29.2601 19.4402 28.2101 19.4402C27.1601 19.4402 26.3601 19.0602 25.7701 18.2802C25.3401 17.7102 25.0701 16.8802 25.0701 15.6802V11.7202C25.0701 10.5202 25.3201 9.5802 25.7501 9.0002C26.3301 8.2302 27.1501 7.8202 28.1701 7.8202C29.1901 7.8202 29.9901 8.2202 30.5701 9.0002C30.9701 9.5802 31.2201 10.4602 31.2201 11.6702V14.0002H27.2001V16.0202C27.2001 17.0702 27.5001 17.5902 28.1801 17.5902H28.1601Z" fill="#E62117"/>
</svg>
