<svg width="21" height="16" viewBox="0 0 21 16" fill="none" xmlns="http://www.w3.org/2000/svg">
<path d="M20.9 15.3H18.78V14.06C17.98 15 17.28 15.46 16.55 15.46C15.89 15.46 15.45 15.16 15.21 14.59C15.09 14.24 14.99 13.71 14.99 12.92V3.90004H17.11V13.16C17.16 13.46 17.29 13.58 17.56 13.58C17.96 13.58 18.34 13.21 18.79 12.58V3.90004H20.91V15.3H20.9ZM13.4 7.62004C13.4 6.40004 13.17 5.49004 12.74 4.92004C12.18 4.12004 11.29 3.82004 10.39 3.82004C9.37 3.82004 8.59 4.12004 8.04 4.92004C7.6 5.49004 7.37 6.42004 7.37 7.62004V11.69C7.37 12.89 7.57 13.73 8.01 14.29C8.57 15.09 9.49 15.49 10.38 15.49C11.28 15.49 12.2 15.09 12.78 14.29C13.18 13.73 13.38 12.89 13.38 11.69V7.60004L13.4 7.62004ZM11.3 11.92C11.4 13.05 11.05 13.62 10.4 13.62C9.74 13.62 9.4 13.05 9.5 11.92V7.40004C9.4 6.27004 9.74 5.74004 10.4 5.74004C11.05 5.74004 11.4 6.27004 11.3 7.40004V11.92V11.92ZM5.03 9.10004V15.3H2.8V9.10004C2.8 9.10004 0.47 1.46004 0 0.0400391H2.35L3.92 6.00004L5.48 0.0500393H7.82L5.02 9.09004" fill="#111111"/>
</svg>
