<svg width="56" height="24" viewBox="0 0 56 24" fill="none" xmlns="http://www.w3.org/2000/svg">
<path d="M20.9 19.3H18.78V18.06C17.98 19 17.28 19.46 16.55 19.46C15.89 19.46 15.45 19.16 15.21 18.59C15.09 18.24 14.99 17.71 14.99 16.92V7.90004H17.11V17.16C17.16 17.46 17.29 17.58 17.56 17.58C17.96 17.58 18.34 17.21 18.79 16.58V7.90004H20.91V19.3H20.9ZM13.4 11.62C13.4 10.4 13.17 9.49004 12.74 8.92004C12.18 8.12004 11.29 7.82004 10.39 7.82004C9.37 7.82004 8.59 8.12004 8.04 8.92004C7.6 9.49004 7.37 10.42 7.37 11.62V15.69C7.37 16.89 7.57 17.73 8.01 18.29C8.57 19.09 9.49 19.49 10.38 19.49C11.28 19.49 12.2 19.09 12.78 18.29C13.18 17.73 13.38 16.89 13.38 15.69V11.6L13.4 11.62ZM11.3 15.92C11.4 17.05 11.05 17.62 10.4 17.62C9.74 17.62 9.4 17.05 9.5 15.92V11.4C9.4 10.27 9.74 9.74004 10.4 9.74004C11.05 9.74004 11.4 10.27 11.3 11.4V15.92ZM5.03 13.1V19.3H2.8V13.1C2.8 13.1 0.47 5.46004 0 4.04004H2.35L3.92 10L5.48 4.05004H7.82L5.02 13.09" fill="#111111"/>
<path d="M42.7404 9.7002C42.4104 9.7002 42.0404 9.9002 41.6904 10.2202V17.0802C42.0204 17.4202 42.3904 17.5802 42.7304 17.5802C43.3304 17.5802 43.5804 17.1602 43.5804 16.0302V11.1702C43.5804 10.0402 43.3104 9.7102 42.7204 9.7102L42.7404 9.7002ZM51.0804 11.0702C51.0804 10.0202 50.8104 9.7102 50.1404 9.7102C49.4704 9.7102 49.1804 10.0102 49.1804 11.0602V12.3102H51.0804V11.0802" fill="#E62117"/>
<path d="M55.6701 5.2802C55.6701 5.2802 55.3401 2.9802 54.3401 1.9502C53.0701 0.600195 51.6401 0.600195 51.0001 0.530195C46.3301 0.200195 39.3201 0.200195 39.3201 0.200195H39.3001C39.3001 0.200195 32.3001 0.200195 27.6301 0.530195C26.9801 0.610195 25.5501 0.610195 24.2801 1.9502C23.2801 2.9702 22.9601 5.2802 22.9601 5.2802C22.9601 5.2802 22.6201 8.0002 22.6201 10.7202V13.2702C22.6201 15.9902 22.9601 18.7002 22.9601 18.7002C22.9601 18.7002 23.2801 21.0202 24.2801 22.0402C25.5501 23.3802 27.2201 23.3402 27.9601 23.4702C30.6301 23.7302 39.3101 23.8102 39.3101 23.8102C39.3101 23.8102 46.3401 23.8102 51.0101 23.4702C51.6601 23.3902 53.0801 23.3902 54.3501 22.0502C55.3501 21.0302 55.6801 18.7102 55.6801 18.7102C55.6801 18.7102 56.0001 16.0002 56.0001 13.2702V10.7202C56.0001 8.0002 55.6701 5.2802 55.6701 5.2802ZM29.9501 19.3002H27.7201V6.3002H25.3701V4.1802H32.4101V6.3002H29.9601V19.3002H29.9501ZM38.0001 19.3002H35.8801V18.0602C35.0801 19.0002 34.3801 19.4602 33.6501 19.4602C32.9901 19.4602 32.5501 19.1602 32.3101 18.5902C32.1901 18.2402 32.0901 17.7102 32.0901 16.9202V8.0002H34.2101V17.1702C34.2601 17.4702 34.3901 17.5902 34.6601 17.5902C35.0601 17.5902 35.4401 17.2202 35.8901 16.5902V8.0002H38.0001V19.3002ZM45.7001 15.9202C45.7001 16.9602 45.6301 17.7002 45.5001 18.1802C45.2201 19.0202 44.6301 19.4502 43.8301 19.4502C43.1101 19.4502 42.3701 19.0102 41.6901 18.1702V19.3102H39.6701V4.1802H41.6701V9.1002C42.3301 8.3002 43.0701 7.8302 43.8201 7.8302C44.6201 7.8302 45.1601 8.3002 45.4201 9.1302C45.5701 9.6002 45.7001 10.3302 45.7001 11.4002V15.9202ZM50.1601 17.5902C50.6601 17.5902 50.9601 17.3102 51.0601 16.7602C51.0801 16.6602 51.0801 16.1602 51.0801 15.3402H53.2001V15.6602C53.2001 16.3202 53.1501 16.7902 53.1301 16.9902C53.0601 17.4502 52.9001 17.8602 52.6601 18.2202C52.1001 19.0402 51.2601 19.4402 50.2101 19.4402C49.1601 19.4402 48.3601 19.0602 47.7701 18.2802C47.3401 17.7102 47.0701 16.8802 47.0701 15.6802V11.7202C47.0701 10.5202 47.3201 9.5802 47.7501 9.0002C48.3301 8.2302 49.1501 7.8202 50.1701 7.8202C51.1901 7.8202 51.9901 8.2202 52.5701 9.0002C52.9701 9.5802 53.2201 10.4602 53.2201 11.6702V14.0002H49.2001V16.0202C49.2001 17.0702 49.5001 17.5902 50.1801 17.5902H50.1601Z" fill="#E62117"/>
</svg>
